<svg xmlns="http://www.w3.org/2000/svg" xmlns:xlink="http://www.w3.org/1999/xlink" fill-rule="nonzero" viewBox="33.28 0.51 214.81 254.97"><defs><linearGradient x1="20" y1="25" x2="20" y2="30" gradientUnits="userSpaceOnUse" id="color-1"><stop offset="0" stop-color="#1a6dff"/><stop offset="1" stop-color="#c822ff"/></linearGradient><linearGradient x1="33.776" y1="27.868" x2="33.776" y2="32" gradientUnits="userSpaceOnUse" id="color-2"><stop offset="0" stop-color="#1a6dff"/><stop offset="1" stop-color="#c822ff"/></linearGradient><linearGradient x1="32.4" y1="2.685" x2="32.4" y2="60.112" gradientUnits="userSpaceOnUse" id="color-3"><stop offset="0" stop-color="#1a6dff"/><stop offset="1" stop-color="#c822ff"/></linearGradient></defs><g transform="translate(-14.08,-14.08) scale(1.11,1.11)"><g fill="none" fill-rule="nonzero" stroke="none" stroke-width="1" stroke-linecap="butt" stroke-linejoin="miter" stroke-miterlimit="10" stroke-dasharray="" stroke-dashoffset="0" font-family="none" font-weight="none" font-size="none" text-anchor="none" style="mix-blend-mode: normal"><g transform="translate(-1.5986,2.40063) scale(4,4)"><ellipse cx="20" cy="27.5" rx="1" ry="2.5" fill="url(#color-1)"/><path d="M31,29c0,0 3,0 5,3c0,0 3,-5 -5,-4z" fill="url(#color-2)"/><path d="M21.231,32.36l5,-6c0.354,-0.423 0.982,-0.482 1.409,-0.128c0.424,0.354 0.481,0.984 0.128,1.408l-4.582,5.498l1.708,3.415c0.247,0.494 0.047,1.095 -0.447,1.342c-0.143,0.071 -0.296,0.105 -0.446,0.105c-0.367,0 -0.72,-0.202 -0.896,-0.553l-2,-4c-0.177,-0.355 -0.127,-0.782 0.126,-1.087zM33.857,45.515c-0.187,0.312 -0.518,0.485 -0.858,0.485c-0.175,0 -0.353,-0.046 -0.514,-0.143c-0.474,-0.284 -0.627,-0.898 -0.343,-1.372c0.416,-0.693 0.641,-1.333 0.742,-1.926c-2.446,2.413 -4.987,3.641 -7.576,3.641c-0.229,0 -0.458,-0.01 -0.688,-0.029c-2.904,-0.242 -5.2,-1.969 -6.666,-3.45c0.147,0.514 -0.131,1.059 -0.642,1.227c-0.104,0.034 -0.21,0.05 -0.313,0.05c-0.418,0 -0.808,-0.263 -0.946,-0.682c-0.049,-0.146 -1.168,-3.614 1.241,-6.023c0.391,-0.391 1.023,-0.391 1.414,0c0.391,0.391 0.391,1.023 0,1.414c-0.125,0.124 -0.212,0.262 -0.307,0.397c0.05,0.022 0.105,0.03 0.152,0.062c0.225,0.148 5.216,3.268 12.93,-0.515c-0.456,-0.446 -0.873,-0.718 -1,-0.795c-0.471,-0.287 -0.621,-0.901 -0.336,-1.372c0.284,-0.473 0.896,-0.625 1.368,-0.341c2.025,1.215 5.123,4.738 2.342,9.372zM31.943,40.657c-3,1.401 -5.649,1.87 -7.832,1.87c-1.621,0 -2.972,-0.256 -4.037,-0.568c1.201,1.049 2.822,2.065 4.723,2.22c2.37,0.198 4.769,-1.001 7.146,-3.522zM26,48h-4c-0.553,0 -1,0.448 -1,1c0,0.552 0.447,1 1,1h4c0.553,0 1,-0.448 1,-1c0,-0.552 -0.447,-1 -1,-1zM19.004,23.991c0.248,0 0.497,-0.091 0.691,-0.272c0.032,-0.03 0.786,-0.719 2.305,-0.719c0.553,0 1,-0.448 1,-1c0,-0.552 -0.447,-1 -1,-1c-2.347,0 -3.575,1.161 -3.707,1.293c-0.386,0.386 -0.385,1.004 -0.006,1.396c0.195,0.201 0.455,0.302 0.717,0.302zM34.242,20.03c-0.533,-0.13 -1.073,0.19 -1.209,0.724c-0.136,0.534 0.188,1.077 0.72,1.215c0.133,0.034 3.247,0.881 3.247,4.031c0,0.552 0.447,1 1,1c0.553,0 1,-0.448 1,-1c0,-3.782 -3.112,-5.559 -4.758,-5.97zM49.149,37.14c0.481,1.218 1.36,4.108 0.044,6.527c-1.019,1.873 -3.065,2.992 -6.083,3.327c-0.01,0.001 -0.02,0.001 -0.03,0.002c-0.871,1.378 -2.035,2.569 -3.237,3.556c-2.879,6.064 -6.156,9.277 -9.745,9.543c-0.163,0.012 -0.324,0.018 -0.484,0.018c-4.356,0 -7.318,-4.365 -7.446,-4.557c-0.095,-0.143 -0.135,-0.3 -0.15,-0.46c-5.491,-1.842 -7.632,-6.086 -8.913,-8.648c-3.849,-7.699 -1.501,-16.408 0.925,-22.045c-0.761,-0.961 -2.737,-4.169 0.112,-8.917c0.013,-0.021 0.034,-0.033 0.048,-0.053c-0.553,-1.646 -0.567,-3.194 -0.016,-4.616c1.32,-3.411 5.354,-4.716 5.524,-4.77c0.405,-0.127 0.846,0.015 1.1,0.353c0.255,0.339 0.268,0.802 0.034,1.155c-0.683,1.028 -1.147,2.39 -0.923,2.697c0.087,0.117 0.707,0.326 2.392,-0.098c0.531,-1.011 2.023,-3.404 4.559,-4.157c1.536,-0.456 3.149,-0.24 4.809,0.642c0.961,-1.428 3.063,-4.041 5.61,-3.95c1.678,0.036 3.142,1.17 4.355,3.371c1.535,0.236 5.42,1.42 7.235,7.356c1.663,1.392 9.453,8.99 0.987,23.1c-0.133,0.222 -0.339,0.374 -0.569,0.443c-0.042,0.06 -0.093,0.12 -0.138,0.181zM16.864,16.497c0.267,0.458 0.678,0.718 1.222,0.772c0.75,0.075 2.838,-0.163 6.164,-3.931c0.69,-0.782 1.97,-1.118 3.269,-0.853c1.193,0.242 2.188,0.944 2.854,1.984c0.91,-0.563 2.335,-1.17 4.059,-0.976c2.166,0.247 4.162,1.676 5.94,4.25c1.115,-0.435 3.161,-1.027 4.959,-0.444c1.139,0.369 2.001,1.126 2.563,2.252c0.76,1.521 0.872,2.886 0.333,4.059c-0.341,0.741 -0.892,1.268 -1.428,1.633c1.205,1.163 2.968,3.207 3.604,5.694c4.214,-10.828 -2.648,-15.885 -2.98,-16.121c-0.186,-0.132 -0.323,-0.324 -0.386,-0.542c-1.75,-6.128 -5.871,-6.271 -6.046,-6.274c-0.372,-0.007 -0.719,-0.22 -0.886,-0.553c-0.622,-1.245 -1.625,-2.733 -2.87,-2.76c-0.012,0 -0.024,0 -0.037,0c-1.806,0 -3.773,2.808 -4.324,3.799c-0.136,0.244 -0.367,0.42 -0.639,0.486c-0.268,0.066 -0.557,0.016 -0.79,-0.14c-1.454,-0.97 -2.808,-1.279 -4.015,-0.919c-2.251,0.669 -3.5,3.454 -3.512,3.481c-0.118,0.276 -0.354,0.485 -0.645,0.567c-0.938,0.269 -3.798,1.086 -4.979,-0.531c-0.471,-0.645 -0.501,-1.454 -0.341,-2.236c-0.771,0.568 -1.529,1.345 -1.918,2.353c-0.54,1.409 -0.262,3.074 0.829,4.95zM15.045,22.213c0.74,-1.49 1.4,-2.615 1.784,-3.236c-0.636,-0.265 -1.169,-0.704 -1.563,-1.299c-0.881,2.045 -0.619,3.589 -0.221,4.535zM47.104,37.445c-0.017,-0.033 -0.015,-0.07 -0.028,-0.104c-0.032,-0.088 -0.064,-0.175 -0.071,-0.268c-0.004,-0.05 0.011,-0.098 0.015,-0.147c0.006,-0.079 0.006,-0.158 0.031,-0.234c0.019,-0.058 0.057,-0.106 0.086,-0.159c0.031,-0.058 0.05,-0.12 0.094,-0.173c1.1,-1.32 1.551,-2.683 1.377,-4.166c-0.409,-3.508 -4.171,-6.365 -4.208,-6.394c-0.309,-0.231 -0.457,-0.62 -0.381,-0.998c0.076,-0.378 0.363,-0.679 0.738,-0.772c0.006,-0.001 1.237,-0.335 1.657,-1.263c0.268,-0.593 0.164,-1.373 -0.31,-2.319c-0.317,-0.636 -0.771,-1.042 -1.386,-1.243c-1.478,-0.48 -3.575,0.33 -4.259,0.683c-0.463,0.24 -1.032,0.083 -1.309,-0.358c-1.55,-2.479 -3.208,-3.841 -4.927,-4.046c-1.996,-0.238 -3.508,1.212 -3.522,1.227c-0.246,0.241 -0.6,0.341 -0.937,0.259c-0.335,-0.081 -0.606,-0.327 -0.715,-0.654c-0.46,-1.38 -1.408,-1.765 -1.932,-1.872c-0.708,-0.142 -1.241,0.07 -1.37,0.217c-2.889,3.273 -5.176,4.35 -6.786,4.57c-0.027,0.111 -0.065,0.222 -0.132,0.323c-0.097,0.146 -9.604,14.667 -3.938,25.999c2.14,4.274 4.913,8.447 13.109,8.447c0.553,0 1,0.448 1,1c0,0.552 -0.447,1 -1,1c-1.097,0 -2.097,-0.085 -3.036,-0.22c1.094,1.106 2.889,2.473 4.995,2.319c2.132,-0.162 4.273,-1.917 6.288,-5.113c-1.028,0.573 -1.761,0.893 -1.853,0.933c-0.128,0.055 -0.262,0.081 -0.393,0.081c-0.388,0 -0.757,-0.227 -0.92,-0.605c-0.218,-0.507 0.018,-1.095 0.524,-1.313c0.066,-0.028 6.646,-2.903 8.466,-7.453c0.205,-0.513 0.791,-0.761 1.3,-0.557c0.333,0.134 0.538,0.431 0.597,0.76c1.721,-0.357 2.889,-1.062 3.465,-2.113c1.183,-2.165 -0.313,-5.243 -0.329,-5.274zM43.707,27.293c-0.39,-0.39 -1.021,-0.39 -1.412,-0.001c-0.391,0.39 -0.392,1.022 -0.003,1.414c0.018,0.019 1.852,1.887 2.76,4.611c0.139,0.418 0.529,0.683 0.948,0.683c0.104,0 0.211,-0.017 0.316,-0.052c0.523,-0.175 0.807,-0.741 0.632,-1.265c-1.061,-3.186 -3.152,-5.302 -3.241,-5.39zM41.707,31.293c-0.386,-0.386 -1.007,-0.385 -1.398,-0.005c-0.393,0.38 -0.401,1.011 -0.026,1.409c0.009,0.009 0.88,0.953 1.77,3.62c0.138,0.418 0.528,0.683 0.947,0.683c0.104,0 0.211,-0.017 0.316,-0.052c0.523,-0.175 0.807,-0.741 0.632,-1.265c-1.044,-3.133 -2.122,-4.271 -2.241,-4.39z" fill="url(#color-3)"/></g></g><g fill="#c822ff" fill-rule="nonzero" stroke="none" stroke-width="1" stroke-linecap="butt" stroke-linejoin="miter" stroke-miterlimit="10" stroke-dasharray="" stroke-dashoffset="0" font-family="none" font-weight="none" font-size="none" text-anchor="none" style="mix-blend-mode: normal"><g><path d="M195.635,235.83l-6.93,-13.53h-6.07v13.53h-7.62v-36.97h13.74c4.36667,0 7.73333,0.97333 10.1,2.92c2.37333,1.94667 3.56,4.69667 3.56,8.25v0c0,2.52667 -0.54667,4.63 -1.64,6.31c-1.09333,1.68667 -2.74667,3.03 -4.96,4.03v0l7.99,15.1v0.36zM182.635,205.03v11.1h6.14c1.91333,0 3.39667,-0.48667 4.45,-1.46c1.04667,-0.97333 1.57,-2.31667 1.57,-4.03v0c0,-1.74 -0.49667,-3.11 -1.49,-4.11c-0.98667,-1 -2.50333,-1.5 -4.55,-1.5v0zM228.535,198.86h7.65v24.35c0,4.04667 -1.26667,7.24667 -3.8,9.6c-2.52667,2.35333 -5.98333,3.53 -10.37,3.53v0c-4.32,0 -7.74667,-1.14333 -10.28,-3.43c-2.54,-2.28667 -3.83667,-5.42667 -3.89,-9.42v0v-24.63h7.62v24.4c0,2.42 0.58,4.18667 1.74,5.3c1.16,1.10667 2.76333,1.66 4.81,1.66v0c4.28,0 6.45333,-2.25333 6.52,-6.76v0z"/></g></g></g></svg>